<?xml version="1.0" standalone="no"?>
<!DOCTYPE svg PUBLIC "-//W3C//DTD SVG 20010904//EN"
 "http://www.w3.org/TR/2001/REC-SVG-20010904/DTD/svg10.dtd">
<svg version="1.0" xmlns="http://www.w3.org/2000/svg"
 width="400.000000pt" height="400.000000pt" viewBox="0 0 400.000000 400.000000"
 preserveAspectRatio="xMidYMid meet">

<g transform="translate(0.000000,400.000000) scale(0.100000,-0.100000)"
fill="#000000" stroke="none">
<path d="M891 3779 c-233 -28 -402 -120 -556 -304 -36 -43 -101 -180 -119
-250 -33 -130 -36 -230 -36 -1060 l1 -830 20 28 c12 15 29 32 40 37 15 9 18 7
13 -7 -5 -17 -5 -17 6 0 6 9 8 23 4 30 -4 6 3 3 16 -8 l23 -20 -12 23 c-6 12
-9 23 -6 23 3 1 10 3 15 4 6 1 15 3 21 4 5 0 7 6 3 13 -4 7 -3 8 5 4 6 -4 8
-12 5 -18 -5 -7 -2 -8 5 -4 7 5 10 15 7 23 -3 8 -2 12 3 9 5 -3 14 1 21 9 11
13 14 13 25 -1 11 -15 12 -14 11 6 -1 15 5 24 18 26 10 1 23 9 28 16 8 10 9 9
5 -3 -3 -9 -1 -22 4 -30 8 -11 9 -10 7 5 -2 10 3 21 10 23 8 3 10 -2 6 -14 -5
-17 -5 -17 9 0 15 17 33 24 23 8 -8 -12 27 -8 36 4 5 7 8 7 9 0 0 -5 2 -18 4
-28 2 -11 1 -16 -2 -13 -3 3 -12 -2 -19 -12 -13 -18 0 -47 18 -36 5 4 5 11 -1
18 -8 9 -7 13 2 13 17 0 18 -27 3 -46 -9 -12 -8 -13 4 -6 8 6 24 10 35 10 20
0 20 9 25 615 7 672 8 687 69 846 79 204 258 357 486 414 44 11 149 25 235 31
193 14 1129 5 1212 -10 173 -33 304 -97 408 -201 82 -81 131 -161 169 -276 49
-147 55 -234 55 -829 0 -657 -8 -732 -95 -913 -45 -94 -145 -207 -233 -266
-100 -66 -244 -112 -396 -126 -81 -7 -82 -7 -24 -9 76 -1 125 -11 118 -22 -3
-5 2 -6 10 -3 11 4 19 -2 25 -17 5 -13 10 -18 10 -11 2 25 62 -58 65 -90 1 -3
4 -10 8 -14 4 -3 5 3 3 15 -2 12 0 19 6 16 5 -4 9 -13 9 -21 0 -10 5 -12 13
-8 9 6 9 5 -1 -8 -10 -12 -9 -18 3 -28 8 -7 12 -17 8 -23 -4 -6 -1 -7 6 -3 9
6 8 13 -5 27 -9 10 -13 19 -8 19 5 0 18 -12 28 -27 11 -14 14 -23 8 -19 -7 4
-12 2 -12 -3 0 -6 4 -11 10 -11 9 0 35 -77 32 -93 -2 -5 2 -6 8 -2 7 4 7 12 0
25 -5 10 -10 22 -10 27 1 4 7 -3 14 -17 11 -18 11 -30 3 -45 -9 -18 -9 -19 8
-5 17 14 18 14 6 -8 -10 -19 -8 -25 13 -47 14 -14 20 -25 13 -25 -7 0 -3 -6 7
-12 24 -13 129 -5 223 17 37 9 111 37 163 63 81 39 109 60 185 136 141 141
202 279 226 505 7 71 9 433 6 1106 -4 1085 -2 1053 -60 1206 -86 228 -276 394
-527 461 l-85 22 -1040 2 c-572 1 -1073 -2 -1114 -7z m1736 -3075 c-3 -3 -12
-4 -19 -1 -8 3 -5 6 6 6 11 1 17 -2 13 -5z m270 -360 c-3 -4 -2 -16 4 -28 10
-20 9 -20 -5 -2 -14 17 -13 36 1 36 4 0 3 -3 0 -6z"/>
<path d="M1379 3090 c-280 -23 -428 -141 -486 -390 -16 -68 -18 -133 -17 -665
0 -367 5 -609 11 -640 l11 -50 1 42 c0 23 8 49 17 57 8 9 12 16 8 16 -3 0 -2
6 4 13 8 10 6 13 -8 14 -13 1 -18 -4 -15 -16 2 -10 -1 -24 -6 -32 -6 -9 -9 4
-9 39 0 38 3 51 12 46 6 -4 8 -3 5 3 -3 5 9 25 28 43 19 19 35 30 35 26 0 -5
6 -3 13 3 8 6 18 7 22 3 5 -4 5 1 2 10 -4 12 -2 15 8 11 8 -3 12 -9 9 -14 -3
-5 2 -6 11 -3 14 6 14 8 -1 19 -16 11 -16 12 0 18 9 4 15 3 12 -2 -6 -9 51
-21 59 -12 11 10 75 9 68 -2 -4 -6 -1 -7 6 -3 7 5 16 18 21 30 9 20 9 20 9 1
1 -12 -2 -25 -6 -31 -5 -5 0 -1 9 9 10 11 16 23 13 27 -10 16 28 3 40 -13 7
-9 15 -14 18 -10 4 3 7 1 7 -6 0 -7 6 -11 14 -8 10 4 12 -1 9 -16 -4 -18 -3
-19 6 -7 10 14 12 13 15 -9 2 -16 16 -25 16 -11 0 9 5 7 16 -6 8 -10 12 -13 8
-5 -5 9 -3 12 5 7 6 -4 9 -18 7 -31 -3 -14 -2 -24 2 -24 20 3 30 -3 28 -18 0
-10 4 -18 9 -19 18 -2 50 -17 57 -28 5 -7 8 -6 8 3 0 8 8 4 20 -10 10 -13 19
-20 20 -15 0 5 8 2 17 -5 14 -12 15 -12 9 0 -6 9 0 8 17 -4 23 -15 43 -22 70
-24 5 -1 5 -5 2 -11 -4 -6 1 -7 11 -3 12 4 15 3 10 -5 -7 -12 11 -17 43 -13 7
2 10 -2 7 -7 -3 -6 1 -13 10 -16 8 -3 12 -2 9 4 -3 6 -1 10 4 10 6 0 11 -4 11
-10 0 -5 6 -10 14 -10 8 0 17 -6 19 -12 4 -10 6 -10 6 0 1 8 8 6 22 -7 18 -17
26 -18 43 -9 20 11 20 10 6 -7 -10 -12 -10 -16 -2 -11 7 4 20 2 29 -6 14 -11
16 -11 9 2 -4 8 0 6 8 -4 12 -15 16 -16 17 -5 0 8 5 3 10 -10 7 -18 12 -21 23
-12 11 9 16 9 22 0 5 -8 3 -9 -6 -4 -9 5 -11 4 -6 -4 4 -6 11 -9 16 -6 11 7
60 -16 60 -28 0 -5 -8 -3 -17 4 -16 13 -17 12 -4 -3 7 -10 18 -15 25 -11 21
14 35 11 28 -5 -5 -15 -4 -15 13 -2 17 14 18 14 6 -8 -6 -12 -8 -22 -4 -21 23
4 43 -2 38 -11 -4 -6 -11 -7 -17 -4 -6 4 -8 2 -5 -4 9 -14 49 -3 44 13 -3 6 1
12 8 12 11 0 11 -5 4 -19 -12 -22 -4 -52 11 -43 5 3 10 1 10 -5 0 -6 5 -8 13
-4 9 6 9 4 -1 -8 -10 -13 -10 -18 -1 -24 7 -4 9 -3 6 3 -4 6 0 13 8 17 8 3 17
0 21 -6 4 -6 3 -8 -3 -5 -6 4 -13 -2 -16 -14 -5 -17 -3 -18 11 -7 12 10 14 10
8 1 -4 -8 -2 -13 4 -13 7 0 10 -13 8 -32 -2 -26 2 -35 21 -44 l24 -12 -29 -5
c-16 -3 52 -4 151 -2 116 3 203 10 244 20 179 43 301 167 349 352 15 61 17
132 17 698 0 572 -2 636 -18 695 -54 198 -171 310 -373 356 -58 14 -158 17
-609 19 -297 2 -583 0 -636 -5z m1340 -225 c141 -72 103 -276 -54 -300 -48 -7
-117 24 -149 68 -30 41 -29 140 1 183 42 59 138 82 202 49z m-558 -202 c217
-75 389 -260 444 -478 19 -76 19 -241 -1 -325 -43 -186 -175 -351 -354 -444
-219 -114 -492 -94 -692 49 -27 20 -54 33 -61 29 -7 -4 -9 -4 -5 1 4 4 -12 30
-37 56 -62 67 -112 149 -148 243 -30 77 -31 89 -32 221 0 128 3 147 28 220 62
175 180 311 339 390 121 60 195 76 328 71 84 -3 122 -9 191 -33z m-1096 -972
c3 -5 2 -12 -3 -15 -5 -3 -9 1 -9 9 0 17 3 19 12 6z m95 -36 c0 -8 -4 -15 -10
-15 -5 0 -7 7 -4 15 4 8 8 15 10 15 2 0 4 -7 4 -15z m27 0 c0 -8 -4 -12 -9 -9
-5 3 -6 10 -3 15 9 13 12 11 12 -6z m-57 -7 c0 -6 -3 -8 -7 -5 -3 4 -12 2 -19
-4 -8 -7 -14 -7 -19 1 -3 6 -11 7 -17 4 -6 -4 -8 -3 -5 2 8 14 67 16 67 2z
m326 -110 l29 -33 -32 29 c-31 28 -38 36 -30 36 2 0 16 -15 33 -32z m-51 12
c-3 -5 -1 -10 6 -10 7 0 10 -3 6 -6 -9 -9 -28 6 -22 17 4 5 8 9 11 9 3 0 2 -4
-1 -10z m426 -227 c13 -16 12 -17 -3 -4 -10 7 -18 15 -18 17 0 8 8 3 21 -13z
m459 -157 c0 -2 -8 -10 -17 -17 -16 -13 -17 -12 -4 4 13 16 21 21 21 13z m-35
-166 c-3 -5 -1 -10 6 -10 7 0 10 -3 6 -6 -9 -9 -28 6 -22 17 4 5 8 9 11 9 3 0
2 -4 -1 -10z"/>
<path d="M1838 2445 c-110 -30 -200 -95 -258 -185 -154 -240 -41 -559 231
-650 53 -18 81 -21 159 -18 82 3 104 8 163 37 88 42 165 119 208 207 33 66 34
73 34 184 0 109 -2 119 -32 183 -38 79 -114 163 -181 200 -98 53 -224 70 -324
42z"/>
<path d="M1246 1647 c3 -10 9 -15 12 -12 3 3 0 11 -7 18 -10 9 -11 8 -5 -6z"/>
<path d="M1277 1609 c7 -7 15 -10 18 -7 3 3 -2 9 -12 12 -14 6 -15 5 -6 -5z"/>
<path d="M985 1590 c-4 -6 -10 -8 -14 -5 -11 6 -44 -31 -47 -52 -2 -9 -9 -20
-16 -24 -7 -5 -8 -9 -3 -9 12 0 43 20 31 20 -5 0 -3 7 4 15 7 8 9 15 5 15 -4
0 -2 7 5 15 10 12 16 13 27 3 11 -9 13 -8 11 3 -2 8 3 13 10 11 8 -1 11 2 7 8
-8 13 -12 13 -20 0z"/>
<path d="M1353 1545 c0 -8 4 -12 9 -9 5 3 6 10 3 15 -9 13 -12 11 -12 -6z"/>
<path d="M410 1501 c0 -6 4 -13 10 -16 6 -3 7 1 4 9 -7 18 -14 21 -14 7z"/>
<path d="M529 1506 c0 -1 -2 -9 -4 -19 -3 -18 -3 -18 16 -1 10 9 19 18 19 19
0 2 -29 3 -31 1z"/>
<path d="M366 1472 c-3 -5 1 -9 9 -9 8 0 12 4 9 9 -3 4 -7 8 -9 8 -2 0 -6 -4
-9 -8z"/>
<path d="M505 1451 c-3 -5 -2 -12 3 -15 5 -3 9 1 9 9 0 17 -3 19 -12 6z"/>
<path d="M296 1428 c3 -5 10 -6 15 -3 13 9 11 12 -6 12 -8 0 -12 -4 -9 -9z"/>
<path d="M632 1380 c0 -19 2 -27 5 -17 2 9 2 25 0 35 -3 9 -5 1 -5 -18z"/>
<path d="M221 1377 c-8 -10 -7 -14 2 -14 8 0 14 6 14 14 0 7 -1 13 -2 13 -2 0
-8 -6 -14 -13z"/>
<path d="M556 1378 c3 -5 10 -6 15 -3 13 9 11 12 -6 12 -8 0 -12 -4 -9 -9z"/>
<path d="M901 1324 c0 -11 3 -14 6 -6 3 7 2 16 -1 19 -3 4 -6 -2 -5 -13z"/>
<path d="M641 1314 c0 -11 3 -14 6 -6 3 7 2 16 -1 19 -3 4 -6 -2 -5 -13z"/>
<path d="M2863 253 c9 -2 23 -2 30 0 6 3 -1 5 -18 5 -16 0 -22 -2 -12 -5z"/>
</g>
</svg>
